<?xml version="1.0" encoding="UTF-8"?>
<!DOCTYPE svg PUBLIC "-//W3C//DTD SVG 1.1//EN" "http://www.w3.org/Graphics/SVG/1.1/DTD/svg11.dtd">
<!-- Creator: CorelDRAW X6 -->
<svg xmlns="http://www.w3.org/2000/svg" xml:space="preserve" width="33.0498mm" height="26.6877mm" version="1.1" style="shape-rendering:geometricPrecision; text-rendering:geometricPrecision; image-rendering:optimizeQuality; fill-rule:evenodd; clip-rule:evenodd"
viewBox="0 0 2996 2419"
 xmlns:xlink="http://www.w3.org/1999/xlink">
 <defs>
  <style type="text/css">
   <![CDATA[
    .fil29 {fill:#FEFEFE}
    .fil2 {fill:#18C0D5}
    .fil3 {fill:#1FC3D6}
    .fil4 {fill:#26C5D8}
    .fil5 {fill:#2DC8DA}
    .fil6 {fill:#34CADB}
    .fil7 {fill:#3BCCDD}
    .fil8 {fill:#41CFDE}
    .fil9 {fill:#48D1E0}
    .fil10 {fill:#4FD4E2}
    .fil11 {fill:#56D6E3}
    .fil12 {fill:#5DD8E5}
    .fil13 {fill:#64DBE7}
    .fil14 {fill:#6BDDE8}
    .fil15 {fill:#72E0EA}
    .fil16 {fill:#79E2EB}
    .fil17 {fill:#80E5ED}
    .fil18 {fill:#87E7EF}
    .fil19 {fill:#8EE9F0}
    .fil20 {fill:#95ECF2}
    .fil21 {fill:#9CEEF4}
    .fil22 {fill:#A2F1F5}
    .fil23 {fill:#A9F3F7}
    .fil24 {fill:#B0F5F8}
    .fil25 {fill:#B7F8FA}
    .fil26 {fill:#BEFAFC}
    .fil27 {fill:#C5FDFD}
    .fil28 {fill:#CCFFFF}
    .fil1 {fill:#28C0D4;fill-rule:nonzero}
    .fil30 {fill:#BDBFC1;fill-rule:nonzero}
    .fil0 {fill:#8E8FA0;fill-rule:nonzero}
   ]]>
  </style>
    <mask id="id0">
  <linearGradient id="id1" gradientUnits="userSpaceOnUse" x1="1757.63" y1="1063.46" x2="1743.13" y2="1227.66">
   <stop offset="0" style="stop-opacity:1; stop-color:white"/>
   <stop offset="0.160784" style="stop-opacity:0.501961; stop-color:white"/>
   <stop offset="1" style="stop-opacity:0; stop-color:white"/>
  </linearGradient>
     <rect style="fill:url(#id1)" x="1563" y="1064" width="374" height="163"/>
    </mask>
 </defs>
 <g id="Capa_x0020_1">
  <metadata id="CorelCorpID_0Corel-Layer"/>
  <path class="fil0" d="M1935 1086c57,53 88,124 91,195 4,71 -20,143 -72,199 -52,55 -122,84 -194,85 -71,1 -144,-25 -200,-78 -57,-53 -88,-124 -91,-195 -4,-71 20,-143 72,-199 52,-55 122,-84 194,-85 71,-1 144,25 200,78z"/>
  <path class="fil0" d="M27 1643l0 -423c0,-32 9,-57 27,-74 18,-17 43,-26 75,-26l124 0c28,0 50,6 65,17 26,20 39,46 39,79l0 189c0,30 -8,54 -25,73 -22,25 -47,37 -76,37l-164 0 0 128 -65 0zm66 -233c1,14 5,23 11,28 9,8 17,11 24,11l126 0c2,0 4,0 5,-1 18,-3 28,-14 32,-31 1,-1 1,-4 1,-8l0 -193c-1,-11 -3,-18 -7,-22 -4,-4 -11,-7 -22,-9l-124 0c-31,0 -47,13 -47,40l0 177c0,4 0,7 1,8zm356 3l0 -293 67 0 0 303c4,17 18,25 44,25l105 0c16,0 27,-3 34,-9 7,-6 10,-17 10,-33l0 -285 65 0 0 293c0,68 -37,101 -111,101l-104 0c-74,0 -111,-34 -111,-101zm417 101l0 -293c0,-68 37,-101 111,-101l104 0c74,0 111,34 111,101l0 293 -65 0 0 -303c-3,-17 -18,-25 -45,-25l-105 0c-17,0 -28,3 -35,9 -7,6 -10,17 -10,34l0 285 -65 0zm417 0l0 -526 65 0 0 131 68 0 0 65 -68 0 0 329 -65 0zm808 0l0 -526 65 0 0 526 -65 0zm158 -106l0 -47c0,-36 8,-64 23,-86 18,-25 43,-37 77,-37l163 0 0 -27c0,-7 -3,-13 -8,-19 -5,-5 -11,-8 -17,-8l-239 0 0 -65 233 0c52,0 83,24 94,73 1,8 2,14 2,18l0 203c0,18 -5,35 -14,50 -21,34 -48,50 -82,50l-131 0c-20,0 -39,-7 -57,-20 -19,-14 -31,-30 -38,-48 -4,-11 -6,-24 -6,-38zm83 35c8,4 20,6 37,6l89 0c36,0 54,-13 54,-39l0 -64c0,-25 -15,-39 -46,-42l-105 0c-31,3 -47,18 -47,42l0 64c0,16 6,27 17,33zm338 -40l0 -414 65 0 0 131 153 0c61,0 96,27 105,81 2,9 2,15 2,18l0 192c0,45 -20,76 -59,93 -15,7 -28,10 -39,10l-129 0c-28,0 -52,-12 -71,-35 -19,-22 -28,-47 -28,-76zm108 46l116 0c3,0 6,0 7,-1 16,-3 25,-16 29,-37 0,-1 0,-1 1,-2l0 -180c0,-29 -15,-44 -44,-44l-116 0c-24,0 -36,14 -36,42l0 174c0,13 4,24 12,34 8,9 18,14 31,14z"/>
  <path class="fil1" d="M1920 1102c52,49 81,114 84,179 3,66 -18,132 -66,183 -48,51 -112,77 -178,78 -65,1 -132,-23 -185,-72 -52,-49 -81,-114 -84,-179 -3,-66 18,-132 66,-183 48,-51 112,-77 178,-78 65,-1 132,23 185,72z"/>
  <path class="fil1" d="M0 1650l0 -423c0,-32 9,-57 27,-74 18,-17 43,-26 75,-26l124 0c28,0 50,6 65,17 26,20 39,46 39,79l0 189c0,30 -8,54 -25,73 -22,25 -47,37 -76,37l-164 0 0 128 -65 0zm66 -233c1,14 5,23 11,28 9,8 17,11 24,11l126 0c2,0 4,0 5,-1 18,-3 28,-14 32,-31 1,-1 1,-4 1,-8l0 -193c-1,-11 -3,-18 -7,-22 -4,-4 -11,-7 -22,-9l-124 0c-31,0 -47,13 -47,40l0 177c0,4 0,7 1,8zm356 3l0 -293 67 0 0 303c4,17 18,25 44,25l105 0c16,0 27,-3 34,-9 7,-6 10,-17 10,-33l0 -285 65 0 0 293c0,68 -37,101 -111,101l-104 0c-74,0 -111,-34 -111,-101zm417 101l0 -293c0,-68 37,-101 111,-101l104 0c74,0 111,34 111,101l0 293 -65 0 0 -303c-3,-17 -18,-25 -45,-25l-105 0c-17,0 -28,3 -35,9 -7,6 -10,17 -10,34l0 285 -65 0zm417 0l0 -526 65 0 0 131 68 0 0 65 -68 0 0 329 -65 0zm808 0l0 -526 65 0 0 526 -65 0zm158 -106l0 -47c0,-36 8,-64 23,-86 18,-25 43,-37 77,-37l163 0 0 -27c0,-7 -3,-13 -8,-19 -5,-5 -11,-8 -17,-8l-239 0 0 -65 233 0c52,0 83,24 94,73 1,8 2,14 2,18l0 203c0,18 -5,35 -14,50 -21,34 -48,50 -82,50l-131 0c-20,0 -39,-7 -57,-20 -19,-14 -31,-30 -38,-48 -4,-11 -6,-24 -6,-38zm83 35c8,4 20,6 37,6l89 0c36,0 54,-13 54,-39l0 -64c0,-25 -15,-39 -46,-42l-105 0c-31,3 -47,18 -47,42l0 64c0,16 6,27 17,33zm338 -40l0 -414 65 0 0 131 153 0c61,0 96,27 105,81 2,9 2,15 2,18l0 192c0,45 -20,76 -59,93 -15,7 -28,10 -39,10l-129 0c-28,0 -52,-12 -71,-35 -19,-22 -28,-47 -28,-76zm108 46l116 0c3,0 6,0 7,-1 16,-3 25,-16 29,-37 0,-1 0,-1 1,-2l0 -180c0,-29 -15,-44 -44,-44l-116 0c-24,0 -36,14 -36,42l0 174c0,13 4,24 12,34 8,9 18,14 31,14z"/>
  <g id="_360061432">
   <path class="fil1" d="M1920 1102c52,49 81,114 84,179 3,66 -18,132 -66,183 -48,51 -112,77 -178,78 -65,1 -132,-23 -185,-72 -52,-49 -81,-114 -84,-179 -3,-66 18,-132 66,-183 48,-51 112,-77 178,-78 65,-1 132,23 185,72z"/>
   <g>
    <path class="fil2" d="M1914 1114c51,47 79,110 83,173 4,64 -17,128 -63,177 -46,49 -109,75 -172,76 -64,1 -128,-22 -180,-69 -51,-47 -79,-110 -83,-173 -4,-64 17,-128 63,-177 46,-49 109,-75 172,-76 64,-1 128,22 180,69z"/>
    <path class="fil3" d="M1908 1125c50,45 77,106 82,167 4,61 -16,123 -60,171 -44,48 -105,72 -167,73 -62,1 -125,-21 -175,-66 -50,-45 -78,-106 -82,-167 -4,-61 16,-123 60,-171 44,-48 105,-72 167,-73 62,-1 125,21 175,66z"/>
    <path class="fil4" d="M1902 1137c49,44 76,102 80,160 4,59 -14,119 -57,165 -42,46 -101,70 -161,71 -60,1 -121,-20 -170,-63 -49,-44 -76,-102 -80,-160 -4,-59 14,-119 57,-165 42,-46 101,-70 161,-71 60,-1 121,20 170,63z"/>
    <path class="fil5" d="M1896 1149c48,42 74,98 79,154 5,57 -13,114 -53,159 -41,44 -97,68 -155,69 -58,1 -117,-19 -165,-60 -48,-42 -74,-98 -79,-154 -5,-57 13,-114 53,-159 41,-44 97,-68 155,-69 58,-1 117,19 165,60z"/>
    <path class="fil6" d="M1890 1161c46,40 73,94 78,148 5,54 -11,110 -50,153 -39,43 -93,65 -149,67 -56,2 -113,-17 -160,-57 -46,-40 -73,-94 -78,-148 -5,-55 11,-110 50,-153 39,-43 93,-65 149,-67 56,-2 113,17 160,57z"/>
    <path class="fil7" d="M1884 1173c45,38 71,89 77,141 6,52 -10,105 -47,147 -37,41 -89,63 -143,65 -54,2 -110,-16 -155,-54 -45,-38 -71,-89 -77,-141 -6,-52 10,-105 47,-147 37,-41 89,-63 143,-65 54,-2 110,16 155,54z"/>
    <path class="fil8" d="M1878 1185c44,36 70,85 75,135 6,50 -8,101 -44,141 -35,40 -85,61 -138,63 -52,2 -106,-15 -150,-51 -44,-36 -70,-85 -76,-135 -6,-50 8,-101 44,-141 35,-40 85,-61 138,-63 52,-2 106,15 150,51z"/>
    <path class="fil9" d="M1872 1197c43,35 68,81 74,129 6,48 -7,96 -40,134 -34,38 -81,58 -132,60 -50,2 -102,-14 -145,-48 -43,-35 -68,-81 -74,-129 -6,-48 7,-96 40,-134 34,-38 81,-58 132,-60 50,-2 102,14 145,48z"/>
    <path class="fil10" d="M1866 1208c42,33 66,77 73,122 7,45 -5,92 -37,128 -32,36 -78,56 -126,58 -48,2 -99,-13 -140,-45 -42,-33 -66,-77 -73,-122 -7,-45 5,-92 37,-128 32,-36 78,-56 126,-58 48,-2 98,13 140,46z"/>
    <path class="fil11" d="M1860 1220c40,31 65,73 72,116 7,43 -4,87 -34,122 -30,35 -74,54 -120,56 -46,2 -95,-12 -135,-43 -40,-31 -65,-73 -72,-116 -7,-43 4,-87 34,-122 30,-35 74,-54 120,-56 46,-2 95,12 135,43z"/>
    <path class="fil12" d="M1854 1232c39,29 63,69 71,110 7,41 -2,83 -31,116 -28,33 -70,51 -114,54 -44,3 -91,-10 -130,-40 -39,-29 -63,-69 -71,-110 -7,-41 2,-83 31,-116 28,-33 70,-51 114,-54 44,-3 91,10 130,40z"/>
    <path class="fil13" d="M1848 1244c38,27 62,65 69,103 8,39 -1,79 -27,110 -27,32 -66,49 -108,52 -42,3 -87,-9 -125,-37 -38,-27 -62,-65 -69,-103 -8,-39 1,-79 27,-110 27,-32 66,-49 108,-52 42,-3 87,9 125,37z"/>
    <path class="fil14" d="M1842 1256c37,25 60,61 68,97 8,36 1,74 -24,104 -25,30 -62,47 -103,50 -40,3 -84,-8 -120,-34 -37,-25 -60,-61 -68,-97 -8,-36 -1,-74 24,-104 25,-30 62,-47 103,-50 40,-3 84,8 120,34z"/>
    <path class="fil15" d="M1836 1268c36,24 59,56 67,91 8,34 2,70 -21,98 -23,28 -58,44 -97,47 -38,3 -80,-7 -115,-31 -36,-24 -59,-57 -67,-91 -8,-34 -2,-70 21,-98 23,-28 58,-44 97,-47 38,-3 80,7 115,31z"/>
    <path class="fil16" d="M1830 1279c34,22 57,52 66,84 9,32 4,65 -18,92 -21,27 -54,42 -91,45 -36,3 -76,-6 -110,-28 -34,-22 -57,-52 -66,-84 -9,-32 -4,-65 18,-92 21,-27 54,-42 91,-45 36,-3 76,6 110,28z"/>
    <path class="fil17" d="M1823 1291c33,20 55,48 65,78 9,30 5,61 -14,86 -19,25 -51,40 -85,43 -34,3 -72,-5 -106,-25 -33,-20 -55,-48 -65,-78 -9,-30 -5,-61 14,-86 19,-25 51,-40 85,-43 34,-3 72,5 106,25z"/>
    <path class="fil18" d="M1817 1303c32,18 54,44 63,71 9,27 7,56 -11,80 -18,24 -47,37 -79,41 -32,3 -69,-4 -101,-22 -32,-18 -54,-44 -63,-71 -9,-27 -7,-56 11,-80 18,-24 47,-38 79,-41 32,-3 69,4 101,22z"/>
    <path class="fil19" d="M1811 1315c31,16 52,40 62,65 10,25 8,52 -8,74 -16,22 -43,35 -74,39 -31,4 -65,-2 -96,-19 -31,-16 -52,-40 -62,-65 -10,-25 -8,-52 8,-74 16,-22 43,-35 74,-39 31,-4 65,2 96,19z"/>
    <path class="fil20" d="M1805 1327c30,15 51,36 61,59 10,23 9,47 -5,68 -14,20 -39,33 -68,37 -29,4 -61,-1 -91,-16 -30,-15 -51,-36 -61,-59 -10,-23 -9,-47 5,-68 14,-20 39,-33 68,-37 29,-4 61,1 91,16z"/>
    <path class="fil21" d="M1799 1339c28,13 49,32 60,52 11,21 11,43 -1,62 -12,19 -35,31 -62,34 -27,4 -57,0 -86,-13 -28,-13 -49,-32 -60,-52 -11,-21 -11,-43 1,-62 12,-19 35,-31 62,-34 27,-4 57,0 86,13z"/>
    <path class="fil22" d="M1793 1350c27,11 48,28 58,46 11,18 12,38 2,56 -11,17 -31,28 -56,32 -25,4 -54,1 -81,-10 -27,-11 -48,-28 -59,-46 -11,-18 -12,-38 -2,-56 11,-17 31,-28 56,-32 25,-4 54,-1 81,10z"/>
    <path class="fil23" d="M1787 1362c26,9 46,24 57,40 11,16 14,34 5,50 -9,16 -27,26 -50,30 -23,4 -50,2 -76,-7 -26,-9 -46,-24 -57,-40 -11,-16 -14,-34 -5,-50 9,-16 27,-26 50,-30 23,-4 50,-2 76,7z"/>
    <path class="fil24" d="M1781 1374c25,7 44,19 56,33 12,14 15,30 8,43 -7,14 -24,24 -44,28 -21,4 -46,3 -71,-4 -25,-7 -44,-20 -56,-33 -12,-14 -15,-30 -8,-43 7,-14 24,-24 44,-28 21,-4 46,-3 71,4z"/>
    <path class="fil25" d="M1775 1386c24,5 43,15 55,27 12,12 17,25 11,37 -5,12 -20,21 -39,26 -19,4 -42,5 -66,-1 -24,-5 -43,-15 -55,-27 -12,-12 -17,-25 -11,-37 5,-12 20,-21 39,-26 19,-4 42,-4 66,1z"/>
    <path class="fil26" d="M1769 1398c22,4 41,11 54,21 12,9 18,21 15,31 -4,11 -16,19 -33,24 -17,5 -39,6 -61,2 -22,-4 -41,-11 -54,-21 -12,-9 -18,-21 -15,-31 4,-11 16,-19 33,-24 17,-5 39,-6 61,-2z"/>
    <path class="fil27" d="M1763 1410c21,2 40,7 52,14 13,7 20,16 18,25 -2,9 -12,17 -27,21 -15,5 -35,7 -56,5 -21,-2 -40,-7 -52,-14 -13,-7 -20,-16 -18,-25 2,-9 12,-17 27,-21 15,-5 35,-7 56,-5z"/>
   </g>
   <ellipse class="fil28" cx="1757" cy="1449" rx="72" ry="27"/>
   <path class="fil29" style="mask:url(#id0)" d="M1750 1068c101,0 183,58 183,129 0,71 -73,-23 -175,-23 -101,0 -192,94 -192,23 0,-71 82,-129 183,-129z"/>
  </g>
  <g>
   <path class="fil30" d="M1342 1583l-57 41 -1 -1 -1 -1 -1 -1 -1 -1 -1 -1 -1 -1 -1 -1 -1 -1 -1 -1 0 -1 0 -1 0 -1 0 -1 0 -1 0 -1 0 -1 0 -1 0 -1 0 -1 0 -1 0 -1 1 -1 1 -1 1 -1 1 -1 1 -1 1 -1 1 -1 1 -1 1 -1 1 -1 1 -1 1 -1 2 -1 2 -1 2 -1 2 -1 2 -1 2 -1 2 -1 2 0 2 0 2 0 2 0 2 0 2 0 2 0 2 0 2 0 2 0 2 0 2 0 2 0 2 0 2 1 2 1 2 1 2 1 2 1 2 1 2 1 1 1 1 1 1 1zm822 -7l61 37 -25 26 -25 25 -26 23 -26 22 -27 20 -27 19 -28 17 -28 15 -28 14 -29 12 -29 10 -30 8 -30 7 -30 5 -30 3 -31 1 -31 0 -31 -2 -31 -4 -31 -6 -31 -8 -31 -9 -31 -11 -31 -13 -31 -14 -31 -16 -31 -18 -30 -20 -30 -21 -30 -23 -30 -25 -30 -26 57 -41 28 25 28 23 28 21 28 20 28 18 28 16 27 15 27 13 27 11 27 10 27 8 26 6 26 5 26 3 25 2 25 0 25 -1 25 -3 25 -4 25 -6 25 -7 25 -9 25 -10 24 -12 24 -13 24 -15 24 -16 24 -18 24 -20 24 -21 24 -23 23 -25zm61 37l-61 -37 1 -1 1 -1 1 -1 1 -1 1 -1 1 -1 2 -1 2 -1 2 -1 2 -1 2 -1 2 -1 2 0 2 0 2 0 2 0 2 0 2 0 2 0 2 0 2 0 2 0 2 0 2 0 2 0 2 0 2 1 2 1 2 1 2 1 2 1 2 1 2 1 1 1 1 1 1 1 1 1 1 1 1 1 1 1 1 1 1 1 1 1 1 1 1 1 0 1 0 1 0 1 0 1 0 1 0 1 0 1 0 1 0 1 0 1 0 1 0 1 -1 1 -1 1 -1 1 -1 1 -1 1 -1 1 -1 1z"/>
  </g>
  <g>
   <path class="fil30" d="M1097 1694l-90 66 -2 -2 -2 -2 -2 -2 -2 -2 -1 -2 -1 -2 -1 -2 -1 -2 -1 -2 -1 -2 -1 -2 0 -2 0 -2 0 -2 0 -2 0 -2 0 -2 0 -2 0 -2 1 -2 1 -2 1 -2 1 -2 1 -2 1 -2 1 -2 2 -2 2 -2 2 -2 2 -2 2 -2 2 -2 2 -2 2 -2 3 -1 3 -1 3 -1 3 -1 3 -1 3 -1 3 -1 3 -1 3 -1 3 0 3 0 3 0 3 0 3 0 3 0 3 0 3 0 3 1 3 1 3 1 3 1 3 1 3 1 3 1 3 1 2 1 2 2 2 2 2 2 2 2zm1311 -11l98 59 -40 42 -41 40 -41 37 -42 35 -43 32 -43 30 -44 27 -45 24 -45 22 -46 19 -47 16 -47 14 -48 11 -48 8 -49 5 -49 2 -49 -1 -49 -4 -49 -6 -49 -9 -49 -12 -49 -15 -49 -18 -49 -20 -49 -23 -49 -26 -49 -28 -49 -31 -48 -34 -48 -36 -48 -39 -48 -42 90 -66 45 39 45 37 45 34 45 31 44 29 44 26 44 23 44 21 43 18 43 15 42 13 42 10 41 8 41 5 41 3 40 1 40 -2 40 -4 40 -7 39 -9 39 -11 39 -14 39 -16 39 -19 39 -21 39 -24 39 -26 38 -29 38 -31 38 -34 38 -37 37 -39zm98 59l-98 -59 2 -2 2 -2 2 -2 2 -2 2 -2 2 -1 2 -1 3 -1 3 -1 3 -1 3 -1 3 -1 3 -1 3 -1 3 -1 3 0 3 0 3 0 3 0 3 0 3 0 3 0 3 0 3 1 3 1 3 1 3 1 3 1 3 1 3 1 3 1 3 1 2 2 2 2 2 2 2 2 2 2 2 2 2 2 2 2 1 2 1 2 1 2 1 2 1 2 1 2 1 2 0 2 0 2 0 2 0 2 0 2 0 2 0 2 0 2 -1 2 -1 2 -1 2 -1 2 -1 2 -1 2 -2 2 -2 2 -2 2z"/>
  </g>
  <g>
   <path class="fil30" d="M836 1845l-126 92 -3 -3 -3 -3 -2 -3 -2 -3 -2 -3 -2 -3 -2 -3 -1 -3 -1 -3 -1 -3 -1 -3 -1 -3 0 -3 0 -3 0 -3 0 -3 0 -3 0 -3 1 -3 1 -3 1 -3 1 -3 1 -3 2 -3 2 -3 2 -3 2 -3 2 -3 3 -3 3 -3 3 -3 3 -2 3 -2 3 -2 4 -2 4 -2 4 -2 4 -2 4 -1 4 -1 4 -1 4 -1 4 -1 4 -1 4 0 4 0 4 0 4 0 4 0 4 0 4 1 4 1 4 1 4 1 4 1 4 1 4 1 4 2 4 2 3 2 3 2 3 2 3 2 3 3zm1831 -15l136 82 -56 59 -57 55 -58 52 -59 48 -60 45 -61 41 -61 38 -62 34 -63 30 -64 27 -65 23 -66 19 -67 15 -67 11 -68 7 -68 3 -69 -1 -69 -5 -69 -9 -69 -13 -69 -17 -69 -21 -69 -25 -69 -28 -68 -32 -68 -36 -68 -40 -68 -43 -68 -47 -67 -51 -67 -55 -67 -58 126 -92 63 55 63 51 63 47 62 44 62 40 62 36 61 32 61 29 60 25 60 21 59 18 58 14 58 11 57 7 57 4 56 1 56 -3 56 -6 55 -9 55 -12 55 -16 55 -19 55 -23 55 -26 54 -30 54 -33 54 -37 54 -40 53 -44 53 -48 53 -51 52 -55zm136 82l-136 -82 3 -3 3 -3 3 -3 3 -2 3 -2 3 -2 3 -2 4 -2 4 -2 4 -1 4 -1 4 -1 4 -1 4 -1 4 -1 4 -1 4 0 4 0 4 0 4 0 4 0 4 0 4 1 4 1 4 1 4 1 4 1 4 1 4 2 4 2 4 2 4 2 3 2 3 2 3 2 3 3 3 3 3 3 2 3 2 3 2 3 2 3 2 3 1 3 1 3 1 3 1 3 1 3 0 3 0 3 0 3 0 3 0 3 0 3 -1 3 -1 3 -1 3 -1 3 -1 3 -2 3 -2 3 -2 3 -2 3 -3 3z"/>
  </g>
  <g>
   <path class="fil30" d="M1339 836l-1 1 -1 1 -1 1 -2 1 -2 1 -2 1 -2 1 -2 1 -2 1 -2 1 -2 0 -2 0 -2 0 -2 0 -2 0 -2 0 -2 0 -2 0 -2 0 -2 0 -2 0 -2 0 -2 0 -2 0 -2 -1 -2 -1 -2 -1 -2 -1 -2 -1 -2 -1 -2 -1 -1 -1 -1 -1 -1 -1 -1 -1 -1 -1 -1 -1 -1 -1 -1 -1 -1 -1 -1 -1 -1 -1 -1 -1 0 -1 0 -1 0 -1 0 -1 0 -1 0 -1 0 -1 0 -1 0 -1 0 -1 0 -1 0 -1 1 -1 1 -1 1 -1 1 -1 1 -1 1 -1 1 -1 1 -1 1 -1 57 41zm822 7l-23 -25 -24 -23 -24 -21 -24 -20 -24 -18 -24 -16 -24 -15 -24 -13 -24 -12 -25 -10 -25 -9 -25 -7 -25 -6 -25 -4 -25 -3 -25 -1 -25 0 -25 2 -26 3 -26 5 -26 6 -27 8 -27 10 -27 11 -27 13 -27 15 -28 16 -28 18 -28 20 -28 21 -28 23 -28 25 -57 -41 30 -26 30 -25 30 -23 30 -21 30 -20 31 -18 31 -16 31 -14 31 -13 31 -11 31 -9 31 -8 31 -6 31 -4 31 -2 31 0 31 1 30 3 30 5 30 7 30 8 29 10 29 12 28 14 28 15 28 17 27 19 27 20 26 22 26 23 25 25 25 26 -61 37zm61 -37l1 1 1 1 1 1 1 1 1 1 1 1 1 1 0 1 0 1 0 1 0 1 0 1 0 1 0 1 0 1 0 1 0 1 0 1 0 1 -1 1 -1 1 -1 1 -1 1 -1 1 -1 1 -1 1 -1 1 -1 1 -1 1 -1 1 -1 1 -2 1 -2 1 -2 1 -2 1 -2 1 -2 1 -2 1 -2 0 -2 0 -2 0 -2 0 -2 0 -2 0 -2 0 -2 0 -2 0 -2 0 -2 0 -2 0 -2 0 -2 0 -2 -1 -2 -1 -2 -1 -2 -1 -2 -1 -2 -1 -1 -1 -1 -1 -1 -1 -1 -1 -1 -1 -1 -1 61 -37z"/>
  </g>
  <g>
   <path class="fil30" d="M1094 725l-2 2 -2 2 -2 2 -2 2 -2 1 -3 1 -3 1 -3 1 -3 1 -3 1 -3 1 -3 1 -3 1 -3 0 -3 0 -3 0 -3 0 -3 0 -3 0 -3 0 -3 0 -3 0 -3 -1 -3 -1 -3 -1 -3 -1 -3 -1 -3 -1 -3 -1 -3 -1 -2 -2 -2 -2 -2 -2 -2 -2 -2 -2 -2 -2 -2 -2 -2 -2 -1 -2 -1 -2 -1 -2 -1 -2 -1 -2 -1 -2 -1 -2 0 -2 0 -2 0 -2 0 -2 0 -2 0 -2 0 -2 0 -2 1 -2 1 -2 1 -2 1 -2 1 -2 1 -2 1 -2 2 -2 2 -2 2 -2 2 -2 90 66zm1311 11l-37 -39 -38 -37 -38 -34 -38 -31 -38 -29 -39 -26 -39 -24 -39 -21 -39 -19 -39 -16 -39 -14 -39 -11 -39 -9 -40 -7 -40 -4 -40 -2 -40 1 -41 3 -41 5 -41 8 -42 10 -42 13 -43 15 -43 18 -43 21 -44 23 -44 26 -44 29 -45 31 -45 34 -45 37 -45 39 -90 -66 48 -42 48 -39 48 -36 48 -34 49 -31 49 -28 49 -26 49 -23 49 -20 49 -18 49 -15 49 -12 49 -9 49 -6 49 -4 49 -1 49 2 49 5 48 8 48 11 47 14 47 16 46 19 45 22 45 24 44 27 43 30 43 32 42 35 41 37 41 40 40 42 -98 59zm98 -59l2 2 2 2 2 2 1 2 1 2 1 2 1 2 1 2 1 2 0 2 0 2 0 2 0 2 0 2 0 2 0 2 0 2 -1 2 -1 2 -1 2 -1 2 -1 2 -1 2 -1 2 -2 2 -2 2 -2 2 -2 2 -2 2 -2 2 -2 2 -2 2 -3 1 -3 1 -3 1 -3 1 -3 1 -3 1 -3 1 -3 1 -3 1 -3 0 -3 0 -3 0 -3 0 -3 0 -3 0 -3 0 -3 0 -3 -1 -3 -1 -3 -1 -3 -1 -3 -1 -3 -1 -3 -1 -3 -1 -2 -1 -2 -1 -2 -2 -2 -2 -2 -2 -2 -2 -2 -2 98 -59z"/>
  </g>
  <g>
   <path class="fil30" d="M833 574l-3 3 -3 2 -3 2 -3 2 -3 2 -4 2 -4 2 -4 1 -4 1 -4 1 -4 1 -4 1 -4 1 -4 1 -4 0 -4 0 -4 0 -4 0 -4 0 -4 0 -4 -1 -4 -1 -4 -1 -4 -1 -4 -1 -4 -1 -4 -2 -4 -2 -4 -2 -4 -2 -3 -2 -3 -2 -3 -2 -3 -3 -3 -3 -3 -3 -2 -3 -2 -3 -2 -3 -2 -3 -2 -3 -1 -3 -1 -3 -1 -3 -1 -3 -1 -3 0 -3 0 -3 0 -3 0 -3 0 -3 0 -3 1 -3 1 -3 1 -3 1 -3 1 -3 2 -3 2 -3 2 -3 2 -3 2 -3 3 -3 3 -3 126 92zm1831 15l-52 -55 -53 -51 -53 -48 -53 -44 -54 -40 -54 -37 -54 -33 -54 -30 -55 -26 -55 -23 -55 -19 -55 -16 -55 -12 -55 -9 -56 -6 -56 -3 -56 1 -57 4 -57 7 -58 11 -58 14 -59 18 -60 21 -60 25 -61 29 -61 32 -62 36 -62 40 -62 44 -63 47 -63 51 -63 55 -126 -92 67 -58 67 -55 67 -51 68 -47 68 -43 68 -40 68 -36 68 -32 69 -28 69 -25 69 -21 69 -17 69 -13 69 -9 69 -5 69 -1 68 3 68 7 67 11 67 15 66 19 65 23 64 27 63 30 62 34 61 38 61 41 60 45 59 48 58 52 57 55 56 59 -136 82zm136 -82l3 3 2 3 2 3 2 3 2 3 1 3 1 3 1 3 1 3 1 3 0 3 0 3 0 3 0 3 0 3 0 3 -1 3 -1 3 -1 3 -1 3 -1 3 -2 3 -2 3 -2 3 -2 3 -2 3 -3 3 -3 3 -3 3 -3 2 -3 2 -3 2 -4 2 -4 2 -4 2 -4 2 -4 1 -4 1 -4 1 -4 1 -4 1 -4 1 -4 0 -4 0 -4 0 -4 0 -4 0 -4 0 -4 -1 -4 -1 -4 -1 -4 -1 -4 -1 -4 -1 -4 -1 -4 -2 -4 -2 -3 -2 -3 -2 -3 -2 -3 -2 -3 -3 -3 -3 -3 -3 136 -82z"/>
  </g>
 </g>
</svg>
